<svg version="1" xmlns="http://www.w3.org/2000/svg" width="424" height="424" viewBox="0 0 318.000000 318.000000"><path d="M140.5 1c-37.9 4.2-67.9 19.2-95.6 47.6C15.9 78.4 2.3 109.8.4 151.5c-2.3 48.9 15.7 92.4 52.1 125.6 29.8 27.2 65.6 40.9 106.8 40.9 46 0 88.4-19.2 119.4-54.3C312 226.2 325.1 174 314 122.9c-6.3-29-19.6-52.6-43-76-24.8-24.8-51.8-39.2-83.5-44.5-11.2-1.8-36.3-2.6-47-1.4zm-29.4 98.9c3.1 1.3 7.9 4 10.7 6.2l5.2 3.9v-4.3c0-2.4.5-4.8 1.2-5.5 1.9-1.9 19.3-1.6 21.2.4 1.3 1.3 1.6 4.6 1.6 20.2 0 10.3-.5 19.4-1 20.2-.7 1.2-3.5 1.5-14 1.5-12.1 0-13.2-.2-14.2-2-.6-1.1-3.2-4.1-5.7-6.6-10.8-10.9-32.9-10.7-44.4.4-6.9 6.8-9.2 12.5-9.2 23.2 0 8.2.3 9.7 3.3 15.7 5.8 11.9 16.1 18.3 29.2 18.3 6.2 0 8.6-.6 13.2-2.8 5.1-2.5 7.2-4.4 13.1-11.6 1.6-2.1 2.4-2.1 15.9-1.9 17.5.4 17.7.6 12.7 10.5-6.7 13.5-24.5 28.3-38.4 32.2-32.1 8.9-63-7.4-75.3-39.7-2.3-5.9-2.6-8.3-2.6-19.7-.1-10.2.3-14.2 1.8-18.5 6.8-20.2 24.1-36.6 43.8-41.6 8-2 24.9-1.2 31.9 1.5zm85.3-.3c.9.3 11.8 15 24.2 32.5 12.4 17.5 22.9 32.1 23.5 32.4.5.4.9-7.6.9-20.4V123h-3.2c-7.9 0-7.9 0-7.6-12.4l.3-11.1 24.8-.3c22.9-.2 24.8-.1 25.5 1.5.9 2.3.8 20-.1 20.9-.4.4-2.9.9-5.7 1.2l-5 .5V216l-2.6 1c-3.3 1.3-16.9 1.3-21.4 0-3.1-.9-6-4.5-25.9-32.5-12.4-17.3-22.6-31.5-22.8-31.5-.2 0-.3 9.2-.3 20.4v20.5l5.3.3 5.2.3.3 10.8.3 10.7-2.8 1.1c-1.7.6-11.2.9-25 .7-18.6-.2-22.5-.6-23.3-1.8-1.3-2-1.3-17.6 0-20.1.8-1.5 2.2-1.9 6-1.9h5V123.3l-5.1-.5c-2.8-.3-5.5-1.2-6-1.9-1.2-2-1.1-17.6.1-20 1-1.8 2.3-1.9 17.5-1.9 9 0 17 .3 17.9.6z"/></svg>