<?xml version="1.0" standalone="no"?>
<!DOCTYPE svg PUBLIC "-//W3C//DTD SVG 20010904//EN"
 "http://www.w3.org/TR/2001/REC-SVG-20010904/DTD/svg10.dtd">
<svg version="1.0" xmlns="http://www.w3.org/2000/svg"
 width="1024.000000pt" height="1024.000000pt" viewBox="0 0 1024.000000 1024.000000"
 preserveAspectRatio="xMidYMid meet">
<metadata>
Created by potrace 1.11, written by Peter Selinger 2001-2013
</metadata>
<g transform="translate(0.000000,1024.000000) scale(0.100000,-0.100000)"
fill="#000000" stroke="none">
<path d="M4835 10229 c-1108 -62 -2144 -474 -3015 -1198 -148 -123 -488 -463
-611 -611 -972 -1169 -1381 -2654 -1138 -4130 149 -907 535 -1744 1138 -2470
123 -148 463 -488 611 -611 1169 -972 2654 -1381 4130 -1138 907 149 1744 535
2470 1138 148 123 488 463 611 611 972 1169 1381 2654 1138 4130 -149 907
-535 1744 -1138 2470 -123 148 -463 488 -611 611 -1022 850 -2285 1271 -3585
1198z m-1582 -3104 c316 -41 583 -159 797 -351 l65 -58 5 140 c4 86 10 148 19
162 26 48 57 52 383 52 268 0 307 -2 338 -18 60 -29 61 -39 58 -732 -3 -672
-2 -656 -62 -682 -46 -19 -807 -19 -854 1 -21 9 -56 45 -101 105 -218 289
-473 416 -836 417 -71 0 -161 -5 -200 -11 -398 -62 -714 -350 -816 -744 -26
-99 -37 -333 -21 -451 67 -494 461 -883 936 -924 402 -34 733 116 938 424 92
139 70 134 558 135 421 0 455 -3 503 -48 50 -48 35 -155 -47 -314 -281 -552
-794 -964 -1386 -1117 -183 -47 -257 -56 -485 -55 -225 0 -320 11 -510 60
-669 171 -1266 778 -1440 1462 -40 160 -56 277 -62 467 -6 194 5 333 38 500
167 825 899 1498 1724 1584 132 14 337 12 458 -4z m3031 -66 c21 -6 56 -27 77
-47 21 -20 369 -523 775 -1117 405 -594 738 -1082 740 -1084 2 -2 4 322 4 721
l0 726 -152 4 c-168 4 -188 10 -210 63 -20 48 -18 649 2 690 29 56 20 56 871
53 l779 -3 27 -28 28 -27 3 -320 c1 -175 -1 -334 -6 -351 -4 -18 -20 -42 -36
-53 -25 -19 -44 -21 -207 -24 l-179 -4 0 -1482 c0 -968 -4 -1502 -10 -1537 -7
-34 -20 -63 -35 -79 l-25 -25 -323 -3 c-223 -2 -334 0 -361 8 -65 19 -116 61
-180 146 -34 44 -362 520 -731 1057 -368 537 -673 976 -677 976 -5 1 -8 -309
-8 -688 l0 -689 153 -4 c169 -4 191 -11 213 -63 21 -51 20 -630 -1 -681 -27
-66 1 -64 -850 -64 -825 0 -817 0 -847 52 -18 32 -25 582 -8 663 18 86 27 89
247 93 l183 4 0 1158 0 1158 -183 4 c-220 4 -229 7 -247 93 -17 81 -10 631 8
663 29 50 38 51 602 52 345 0 538 -4 564 -11z"/>
</g>
</svg>
